<?xml version="1.0" encoding="UTF-8"?>
<svg id="Layer_1" xmlns="http://www.w3.org/2000/svg" viewBox="0 0 448 392">
  <defs>
    <style>
      .cls-1 {
        fill: #212121;
      }
    </style>
  </defs>
  <path class="cls-1" d="M16,72h416c8.84,0,16-7.16,16-16V16c0-8.84-7.16-16-16-16H16C7.16,0,0,7.16,0,16v40c0,8.84,7.16,16,16,16ZM16,232h416c8.84,0,16-7.16,16-16v-40c0-8.84-7.16-16-16-16H16c-8.84,0-16,7.16-16,16v40c0,8.84,7.16,16,16,16ZM16,392h416c8.84,0,16-7.16,16-16v-40c0-8.84-7.16-16-16-16H16c-8.84,0-16,7.16-16,16v40c0,8.84,7.16,16,16,16Z"/>
</svg>