<?xml version="1.0" encoding="UTF-8"?>
<svg id="svg2" xmlns="http://www.w3.org/2000/svg" viewBox="0 0 83.53 85.67">
  <defs>
    <style>
      .cls-1 {
        fill: #212121;
      }
    </style>
  </defs>
  <g id="layer1">
    <g id="g4154">
      <path class="cls-1" d="M49.49,84.52c-13.88-4.26-24.6-14.9-30.16-29.96-6.24-16.86-4.58-36.06,4.31-50.1l3.38,2.14c-8.24,13.01-9.75,30.85-3.94,46.57,5.13,13.86,14.92,23.63,27.59,27.52l-1.17,3.82Z"/>
      <path class="cls-1" d="M68.27,75.34l-3.87-1.01c4.08-15.66.58-34.51-8.93-48.01-5.34-7.59-14.94-16.92-30.33-18.29l.35-3.98c13.19,1.17,25,8.27,33.24,19.97,10.16,14.42,13.9,34.57,9.53,51.32Z"/>
      <rect class="cls-1" x="39.94" y="1.84" width="4" height="81.64" transform="translate(-13.94 21.3) rotate(-24.57)"/>
      <path class="cls-1" d="M19.73,27.54c-4.71,0-9.26-1.09-13.37-3.27l1.87-3.54c6.3,3.33,13.86,3.71,21.27,1.05,9.05-3.24,16.91-10.58,20.5-19.14l3.69,1.54c-4.01,9.57-12.76,17.75-22.84,21.36-3.71,1.33-7.46,1.99-11.12,1.99Z"/>
      <path class="cls-1" d="M18.29,44.94c-5.53,0-10.99-.83-16.2-2.5l1.22-3.81c23.98,7.69,52.65-4.76,62.62-27.19l3.66,1.62c-5.29,11.92-15.35,21.54-28.32,27.08-7.45,3.19-15.28,4.79-22.97,4.79Z"/>
      <path class="cls-1" d="M21.3,64.17c-5.41,0-10.78-.62-15.9-1.89l.96-3.88c25.17,6.21,59.14-4.26,70.14-32.03l3.72,1.47c-5.34,13.48-16.37,24.37-31.05,30.66-8.73,3.75-18.37,5.66-27.86,5.66Z"/>
      <path class="cls-1" d="M41.78,85.67C19.1,85.67.42,66.93,0,43.59-.41,20.04,17.92.49,40.88,0c22.99-.49,42.09,18.28,42.64,41.83l-4,.09c-.5-21.35-17.81-38.33-38.56-37.92C20.21,4.45,3.63,22.17,4.01,43.52c.38,21.35,17.58,38.44,38.35,38.14,20.76-.32,37.44-17.95,37.18-39.3l4-.05c.29,23.55-18.15,43-41.12,43.35-.21,0-.42,0-.63,0Z"/>
      <path class="cls-1" d="M33.19,79.58c-5.73,0-11.48-.92-17.02-2.87l1.33-3.77c24.39,8.59,53.44-4.41,62.16-27.8l3.75,1.4c-7.47,20.04-28.65,33.04-50.22,33.04Z"/>
      <path class="cls-1" d="M83.07,49.15l-3.96-.58c.35-2.42.48-4.89.39-7.33l4-.16c.11,2.69-.04,5.4-.43,8.06Z"/>
    </g>
  </g>
</svg>