<?xml version="1.0" encoding="UTF-8"?>
<svg id="Layer_1" xmlns="http://www.w3.org/2000/svg" viewBox="0 0 731.53 851.59">
  <defs>
    <style>
      .cls-1 {
        fill: #810d0d;
      }

      .cls-2 {
        fill: #212121;
      }
    </style>
  </defs>
  <g>
    <path class="cls-2" d="M75.46,771.24h-27.1v73.06h-21.76v-73.06H0v-16.71h75.46v16.71Z"/>
    <path class="cls-2" d="M107.83,844.3h-21.7v-89.77h21.7v89.77Z"/>
    <path class="cls-2" d="M196,813.91c-.29,6.25-1.98,11.77-5.08,16.55-3.1,4.79-7.45,8.5-13.05,11.13-5.6,2.63-12,3.95-19.19,3.95-11.86,0-21.21-3.84-28.03-11.53-6.82-7.69-10.23-18.54-10.23-32.55v-4.44c0-8.79,1.54-16.49,4.62-23.09,3.08-6.6,7.51-11.69,13.3-15.29,5.79-3.6,12.48-5.39,20.09-5.39,10.95,0,19.76,2.87,26.41,8.6,6.65,5.73,10.44,13.64,11.35,23.71h-21.7c-.17-5.47-1.55-9.39-4.15-11.78-2.6-2.38-6.57-3.58-11.9-3.58s-9.38,2.01-11.91,6.04c-2.52,4.03-3.84,10.46-3.97,19.3v6.35c0,9.58,1.21,16.42,3.63,20.53,2.42,4.11,6.58,6.17,12.49,6.17,5,0,8.83-1.17,11.47-3.51,2.64-2.34,4.05-6.06,4.22-11.16h21.64Z"/>
    <path class="cls-1" d="M305.06,771.24h-27.1v73.06h-21.76v-73.06h-26.6v-16.71h75.46v16.71Z"/>
    <path class="cls-1" d="M358.08,827.53h-29.82l-5.21,16.77h-23.25l33.11-89.77h20.46l33.36,89.77h-23.38l-5.27-16.77ZM333.46,810.82h19.41l-9.73-31.14-9.67,31.14Z"/>
    <path class="cls-1" d="M465.03,813.91c-.29,6.25-1.98,11.77-5.08,16.55-3.1,4.79-7.45,8.5-13.05,11.13-5.6,2.63-12,3.95-19.19,3.95-11.86,0-21.21-3.84-28.03-11.53-6.82-7.69-10.23-18.54-10.23-32.55v-4.44c0-8.79,1.54-16.49,4.62-23.09,3.08-6.6,7.51-11.69,13.3-15.29,5.79-3.6,12.48-5.39,20.09-5.39,10.95,0,19.76,2.87,26.41,8.6,6.65,5.73,10.44,13.64,11.35,23.71h-21.7c-.16-5.47-1.55-9.39-4.15-11.78-2.6-2.38-6.57-3.58-11.91-3.58s-9.38,2.01-11.9,6.04c-2.52,4.03-3.84,10.46-3.97,19.3v6.35c0,9.58,1.21,16.42,3.63,20.53,2.42,4.11,6.58,6.17,12.49,6.17,5,0,8.83-1.17,11.47-3.51,2.64-2.34,4.05-6.06,4.22-11.16h21.64Z"/>
    <path class="cls-2" d="M574.1,771.24h-27.1v73.06h-21.76v-73.06h-26.6v-16.71h75.46v16.71Z"/>
    <path class="cls-2" d="M657.99,801.27c0,8.75-1.63,16.5-4.9,23.24-3.27,6.74-7.91,11.93-13.92,15.57s-12.87,5.46-20.55,5.46-14.51-1.76-20.46-5.27c-5.95-3.51-10.59-8.54-13.92-15.08-3.33-6.54-5.07-14.04-5.24-22.5v-5.06c0-8.79,1.62-16.55,4.87-23.27,3.24-6.72,7.9-11.91,13.95-15.57,6.06-3.66,12.95-5.49,20.68-5.49s14.47,1.81,20.46,5.43c5.99,3.62,10.65,8.77,13.98,15.44,3.33,6.68,5.01,14.33,5.05,22.97v4.13ZM635.86,797.5c0-8.92-1.5-15.69-4.5-20.32-3-4.62-7.29-6.94-12.87-6.94-10.91,0-16.68,8.14-17.3,24.42l-.06,6.6c0,8.8,1.47,15.56,4.4,20.29,2.93,4.73,7.3,7.09,13.08,7.09s9.73-2.32,12.71-6.97c2.98-4.64,4.49-11.32,4.53-20.04v-4.13Z"/>
    <path class="cls-2" d="M725.21,806.2h-34.23v21.46h40.43v16.65h-62.19v-89.77h62.31v16.71h-40.55v18.93h34.23v16.03Z"/>
  </g>
  <g>
    <path class="cls-2" d="M709.17,0H22.36C10.01,0,0,10.01,0,22.36v686.8c0,12.35,10.01,22.36,22.36,22.36h686.8c12.35,0,22.36-10.01,22.36-22.36V22.36c0-12.35-10.01-22.36-22.36-22.36ZM229.86,703.83H25.67v-204.19h204.19v204.19ZM229.86,462.82H25.67v-204.19h204.19v204.19ZM229.86,227.44H25.67V23.25h204.19v204.19ZM466.41,703.83h-204.19v-204.19h204.19v204.19ZM466.41,462.82h-204.19v-204.19h204.19v204.19ZM466.41,227.44h-204.19V23.25h204.19v204.19ZM705.86,703.83h-204.19v-204.19h204.19v204.19ZM705.86,462.82h-204.19v-204.19h204.19v204.19ZM705.86,227.44h-204.19V23.25h204.19v204.19Z"/>
    <polygon class="cls-2" points="460.68 282.04 443 264.36 364.31 343.05 285.62 264.36 267.95 282.04 346.63 360.73 267.95 439.42 285.62 457.09 364.31 378.41 443 457.09 460.68 439.42 381.99 360.73 460.68 282.04"/>
    <polygon class="cls-2" points="224.13 523.04 206.45 505.36 127.77 584.05 49.08 505.36 31.4 523.04 110.09 601.73 31.4 680.42 49.08 698.1 127.77 619.41 206.45 698.1 224.13 680.42 145.44 601.73 224.13 523.04"/>
    <polygon class="cls-2" points="224.13 282.04 206.45 264.36 127.77 343.05 49.08 264.36 31.4 282.04 110.09 360.73 31.4 439.42 49.08 457.09 127.77 378.41 206.45 457.09 224.13 439.42 145.44 360.73 224.13 282.04"/>
    <path class="cls-1" d="M365.77,218.26c-51.23,0-92.91-41.68-92.91-92.91s41.68-92.91,92.91-92.91,92.91,41.68,92.91,92.91-41.68,92.91-92.91,92.91ZM365.77,56.43c-38,0-68.91,30.91-68.91,68.91s30.91,68.91,68.91,68.91,68.91-30.91,68.91-68.91-30.91-68.91-68.91-68.91Z"/>
    <path class="cls-1" d="M603.76,453.64c-51.23,0-92.91-41.68-92.91-92.91s41.68-92.91,92.91-92.91,92.91,41.68,92.91,92.91-41.68,92.91-92.91,92.91ZM603.76,291.82c-38,0-68.91,30.91-68.91,68.91s30.91,68.91,68.91,68.91,68.91-30.91,68.91-68.91-30.91-68.91-68.91-68.91Z"/>
    <path class="cls-1" d="M603.76,694.64c-51.23,0-92.91-41.68-92.91-92.91s41.68-92.91,92.91-92.91,92.91,41.68,92.91,92.91-41.68,92.91-92.91,92.91ZM603.76,532.82c-38,0-68.91,30.91-68.91,68.91s30.91,68.91,68.91,68.91,68.91-30.91,68.91-68.91-30.91-68.91-68.91-68.91Z"/>
  </g>
</svg>