<?xml version="1.0" encoding="UTF-8"?>
<svg id="Layer_1" data-name="Layer 1" xmlns="http://www.w3.org/2000/svg" viewBox="0 0 496.67 496.67">
  <defs>
    <style>
      .cls-1 {
        fill: #810d0d;
      }

      .cls-2 {
        fill: #212121;
      }
    </style>
  </defs>
  <path class="cls-1" d="M120.34,496.67C53.98,496.67,0,442.69,0,376.34s53.98-120.34,120.34-120.34,120.34,53.98,120.34,120.34-53.98,120.34-120.34,120.34ZM120.34,287.08c-49.21,0-89.25,40.04-89.25,89.25s40.04,89.25,89.25,89.25,89.25-40.04,89.25-89.25-40.04-89.25-89.25-89.25Z"/>
  <polygon class="cls-2" points="231.43 29.62 211.05 9.24 120.34 99.96 29.62 9.24 9.24 29.62 99.96 120.34 9.24 211.05 29.62 231.43 120.34 140.71 211.05 231.43 231.43 211.05 140.71 120.34 231.43 29.62"/>
  <polygon class="cls-2" points="487.43 285.62 467.05 265.24 376.34 355.96 285.62 265.24 265.24 285.62 355.96 376.34 265.24 467.05 285.62 487.43 376.34 396.71 467.05 487.43 487.43 467.05 396.71 376.34 487.43 285.62"/>
  <path class="cls-1" d="M376.34,240.67c-66.35,0-120.34-53.98-120.34-120.34S309.98,0,376.34,0s120.34,53.98,120.34,120.34-53.98,120.34-120.34,120.34ZM376.34,31.08c-49.21,0-89.25,40.04-89.25,89.25s40.04,89.25,89.25,89.25,89.25-40.04,89.25-89.25-40.04-89.25-89.25-89.25Z"/>
</svg>